<?xml version="1.0" encoding="UTF-8" standalone="no"?>
<!DOCTYPE svg PUBLIC "-//W3C//DTD SVG 1.1//EN" "http://www.w3.org/Graphics/SVG/1.1/DTD/svg11.dtd">
<svg width="100%" height="100%" viewBox="0 0 612 612" version="1.1" xmlns="http://www.w3.org/2000/svg" xmlns:xlink="http://www.w3.org/1999/xlink" xml:space="preserve" style="fill-rule:evenodd;clip-rule:evenodd;stroke-linejoin:round;stroke-miterlimit:1.41421;">
    <g id="logo">
        <rect id="background" x="0" y="0" width="612" height="612" style="fill:rgb(153,0,144);"/>
        <g id="j" transform="matrix(1,0,0,1,35.653,-54.015)">
            <path d="M160.917,601.432L207.752,573.088C216.788,589.108 225.007,602.662 244.722,602.662C263.62,602.662 275.534,595.269 275.534,566.515L275.534,370.966L333.046,370.966L333.046,567.328C333.046,626.896 298.129,654.01 247.186,654.01C201.178,654.01 174.472,630.183 160.916,601.427" style="fill:white;fill-rule:nonzero;"/>
        </g>
        <g transform="matrix(1.36863,0,-4.93102e-34,1.36863,158.418,-439.572)">
            <path d="M89.818,504.793C87.994,504.313 85.978,504.025 83.77,504.025C73.306,504.025 66.202,510.265 66.202,519.001C66.202,522.553 67.546,525.817 69.85,528.313C66.202,529.945 64.186,532.729 64.186,536.377C64.186,540.121 65.722,542.809 69.082,544.633C64.474,546.361 61.594,549.241 61.594,553.657C61.594,561.433 68.89,567.097 83.578,567.097C99.802,567.097 106.138,560.569 106.138,551.929C106.138,543.961 99.802,539.353 88.666,538.777L78.586,538.297C75.61,538.201 74.362,536.953 74.362,535.033C74.362,533.977 74.746,533.113 75.418,532.537C77.722,533.689 80.506,534.169 83.77,534.169C94.234,534.169 100.954,527.737 100.954,519.001C100.954,517.177 100.474,515.449 99.514,514.009L105.562,514.009L105.562,504.793L89.818,504.793ZM83.578,524.761C79.642,524.761 77.53,522.457 77.53,519.001C77.53,515.737 79.642,513.529 83.578,513.529C87.514,513.529 89.626,515.737 89.626,519.001C89.626,522.457 87.514,524.761 83.578,524.761ZM75.322,548.857L86.074,549.529C91.354,549.817 92.89,550.585 92.89,552.889C92.89,555.385 91.162,557.401 83.578,557.401C76.474,557.401 74.17,555.289 74.17,552.025C74.17,550.777 74.554,549.721 75.322,548.857Z" style="fill:white;fill-rule:nonzero;"/>
            <path d="M135.706,521.497L126.202,521.497C116.122,521.497 109.498,525.049 109.498,533.785C109.498,543.289 116.41,546.649 123.898,546.649C129.37,546.649 132.922,544.825 135.994,540.121L135.706,545.785L148.57,545.785L148.57,522.553C148.57,509.689 140.602,504.025 130.138,504.025C120.538,504.025 116.218,507.001 112.378,510.745L119.578,518.425C121.402,516.793 123.994,514.681 128.89,514.681C133.21,514.681 135.514,516.793 135.706,521.497ZM135.706,529.177L135.706,530.809C135.706,534.265 133.018,536.569 127.738,536.569C124.09,536.569 122.17,535.225 122.17,532.921C122.17,530.617 123.61,529.177 126.874,529.177L135.706,529.177Z" style="fill:white;fill-rule:nonzero;"/>
            <path d="M158.458,545.785L171.418,545.785L171.418,523.897C171.418,518.329 173.722,515.833 178.714,515.833C183.61,515.833 185.05,518.425 185.05,523.225L185.05,545.785L197.914,545.785L197.914,523.897C197.914,518.329 200.122,515.833 205.114,515.833C210.01,515.833 211.546,518.425 211.546,523.225L211.546,545.785L224.41,545.785L224.41,522.073C224.41,510.841 218.458,504.025 208.186,504.025C202.138,504.025 197.626,506.809 194.266,511.033C191.77,506.233 188.026,504.025 182.746,504.025C177.85,504.025 174.01,506.233 171.13,511.225L171.418,504.889L158.458,504.889L158.458,545.785Z" style="fill:white;fill-rule:nonzero;"/>
            <path d="M246.106,529.273L277.114,529.273C278.074,514.969 270.106,504.025 255.418,504.025C242.746,504.025 232.858,512.857 232.858,525.241C232.858,537.817 242.266,546.649 256.858,546.649C265.402,546.649 270.394,544.057 274.33,540.601L266.938,532.633C264.922,534.073 261.37,535.897 256.666,535.897C250.81,535.897 247.354,533.497 246.106,529.273ZM245.914,521.785C246.97,516.889 250.426,514.585 255.514,514.585C260.602,514.585 263.482,517.273 264.058,521.785L245.914,521.785Z" style="fill:white;fill-rule:nonzero;"/>
            <path d="M301.114,546.649C313.978,546.649 317.914,540.505 317.914,533.017C317.914,524.377 310.426,521.593 304.474,520.249C298.906,519.001 296.314,518.713 296.314,516.409C296.314,514.777 297.754,514.009 300.73,514.009C303.802,514.009 306.682,515.449 308.602,517.081L315.514,509.689C312.154,506.233 307.354,504.025 300.634,504.025C291.898,504.025 284.794,507.769 284.794,516.985C284.794,525.529 291.034,528.601 296.602,530.041C303.226,531.769 305.818,531.769 305.818,533.977C305.818,535.705 304.474,536.473 300.25,536.473C296.41,536.473 292.858,534.841 290.074,532.153L282.49,538.873C286.042,543.097 291.61,546.649 301.114,546.649Z" style="fill:white;fill-rule:nonzero;"/>
        </g>
        <g id="s" transform="matrix(1,0,0,1,35.653,-54.015)">
            <path d="M364.286,595.27L411.114,568.156C423.442,588.288 439.463,603.077 467.808,603.077C491.638,603.077 506.833,591.162 506.833,574.729C506.833,555.01 491.224,548.026 464.931,536.526L450.556,530.36C409.062,512.698 381.536,490.514 381.536,443.682C381.536,400.547 414.4,367.68 465.754,367.68C502.316,367.68 528.608,380.417 547.504,413.693L502.725,442.448C492.865,424.785 482.186,417.802 465.754,417.802C448.911,417.802 438.229,428.484 438.229,442.448C438.229,459.704 448.912,466.688 473.558,477.37L487.935,483.531C536.822,504.484 564.347,525.844 564.347,573.907C564.347,625.672 523.677,654.015 469.04,654.015C415.636,654.015 381.127,628.547 364.286,595.27" style="fill:white;fill-rule:nonzero;"/>
        </g>
    </g>
</svg>
